<svg width="2033" height="294" viewBox="0 0 2033 294" fill="none" xmlns="http://www.w3.org/2000/svg">
<path d="M2 292C19.2274 228.564 312.5 153.809 404.5 130.559C496.5 107.308 560.5 86 598.357 81.5C636.214 77 675.284 77.9957 712.257 83.1127C757.917 89.4321 804.543 96.2784 848.37 106.664C888.55 116.185 928.144 127.246 969.839 133.975C1009.8 140.425 1050.55 144.491 1091.8 144.9C1142.52 145.404 1191.82 144.263 1241.15 136.035C1284.23 128.848 1341.81 115.821 1363.96 88.6646C1377.13 72.5125 1355.75 58.1512 1337.57 48.637C1298.5 28.1866 1247.35 18.0257 1198.56 11.3854C1157.9 5.85121 1115.59 3.14623 1074.05 2.52024C1035.64 1.94147 996.474 1.40244 958.166 3.50525C924.408 5.35838 889.971 7.40586 856.859 12.0122C827.35 16.1175 799.674 19.6983 776.069 32.3394C746.854 47.9844 738.513 67.9498 739.14 91.351C739.871 118.66 780.131 142.386 817.879 151.751C846.099 158.752 877.452 161.95 907.584 162.989C947.497 164.364 990.095 165.374 1029.62 161.243C1114.35 152.385 1183.88 121.97 1259.19 98.0223C1294.6 86.7605 1330.02 76.7271 1364.17 63.9048C1409.82 46.7684 1455.79 37.3822 1508.92 34.4886C1576.01 30.8343 1645.61 36.6625 1711.46 44.8313C1752.37 49.9062 1991.44 119.756 2031.5 127" stroke="url(#paint0_linear_141_1169)" stroke-width="3" stroke-linecap="round"/>
<defs>
<linearGradient id="paint0_linear_141_1169" x1="310" y1="115" x2="1833" y2="115" gradientUnits="userSpaceOnUse">
<stop stop-color="#C24229"/>
<stop offset="1" stop-color="#EFB758"/>
</linearGradient>
</defs>
</svg>
