<svg width="1440" height="303" viewBox="0 0 1440 303" fill="none" xmlns="http://www.w3.org/2000/svg">
<path d="M278.902 57V56.1C279.862 56.04 280.582 55.92 281.062 55.74C281.542 55.56 281.857 55.2 282.007 54.66C282.187 54.12 282.277 53.31 282.277 52.23V29.91C282.277 28.8 282.187 27.99 282.007 27.48C281.857 26.94 281.527 26.58 281.017 26.4C280.537 26.19 279.832 26.07 278.902 26.04V25.14C279.712 25.17 280.762 25.2 282.052 25.23C283.372 25.26 284.677 25.275 285.967 25.275C287.347 25.275 288.637 25.26 289.837 25.23C291.067 25.2 292.057 25.17 292.807 25.14V26.04C291.847 26.07 291.112 26.19 290.602 26.4C290.122 26.58 289.807 26.94 289.657 27.48C289.507 27.99 289.432 28.8 289.432 29.91V52.23C289.432 53.31 289.507 54.12 289.657 54.66C289.837 55.2 290.167 55.56 290.647 55.74C291.127 55.92 291.847 56.04 292.807 56.1V57C292.057 56.94 291.067 56.91 289.837 56.91C288.637 56.88 287.347 56.865 285.967 56.865C284.677 56.865 283.372 56.88 282.052 56.91C280.762 56.91 279.712 56.94 278.902 57ZM259.822 57V56.1C260.782 56.04 261.502 55.92 261.982 55.74C262.462 55.56 262.777 55.2 262.927 54.66C263.107 54.12 263.197 53.31 263.197 52.23V29.91C263.197 28.8 263.107 27.99 262.927 27.48C262.777 26.94 262.447 26.58 261.937 26.4C261.457 26.19 260.752 26.07 259.822 26.04V25.14C260.602 25.17 261.607 25.2 262.837 25.23C264.097 25.26 265.462 25.275 266.932 25.275C268.192 25.275 269.437 25.26 270.667 25.23C271.897 25.2 272.917 25.17 273.727 25.14V26.04C272.767 26.07 272.032 26.19 271.522 26.4C271.042 26.58 270.727 26.94 270.577 27.48C270.427 27.99 270.352 28.8 270.352 29.91V52.23C270.352 53.31 270.427 54.12 270.577 54.66C270.757 55.2 271.087 55.56 271.567 55.74C272.047 55.92 272.767 56.04 273.727 56.1V57C272.917 56.94 271.897 56.91 270.667 56.91C269.437 56.88 268.192 56.865 266.932 56.865C265.462 56.865 264.097 56.88 262.837 56.91C261.607 56.91 260.602 56.94 259.822 57ZM267.427 41.43V40.53H285.202V41.43H267.427ZM306.138 33.105C308.778 33.105 310.848 33.885 312.348 35.445C313.848 37.005 314.598 39.555 314.598 43.095H299.793L299.703 42.24H308.928C308.958 40.77 308.868 39.42 308.658 38.19C308.448 36.93 308.118 35.925 307.668 35.175C307.218 34.425 306.618 34.05 305.868 34.05C304.818 34.05 303.918 34.71 303.168 36.03C302.448 37.35 302.013 39.54 301.863 42.6L301.998 42.87C301.968 43.23 301.938 43.605 301.908 43.995C301.908 44.385 301.908 44.79 301.908 45.21C301.908 47.28 302.193 48.96 302.763 50.25C303.363 51.54 304.113 52.485 305.013 53.085C305.913 53.655 306.828 53.94 307.758 53.94C308.388 53.94 309.033 53.85 309.693 53.67C310.383 53.46 311.073 53.1 311.763 52.59C312.453 52.05 313.098 51.3 313.698 50.34L314.508 50.61C314.148 51.75 313.578 52.86 312.798 53.94C312.018 55.02 311.028 55.905 309.828 56.595C308.628 57.285 307.188 57.63 305.508 57.63C303.468 57.63 301.668 57.195 300.108 56.325C298.548 55.455 297.318 54.135 296.418 52.365C295.548 50.595 295.113 48.345 295.113 45.615C295.113 42.825 295.578 40.5 296.508 38.64C297.468 36.78 298.773 35.4 300.423 34.5C302.103 33.57 304.008 33.105 306.138 33.105ZM326.384 21.765V52.815C326.384 54.075 326.594 54.93 327.014 55.38C327.464 55.83 328.214 56.055 329.264 56.055V57C328.694 56.97 327.839 56.94 326.699 56.91C325.559 56.85 324.404 56.82 323.234 56.82C322.064 56.82 320.879 56.85 319.679 56.91C318.509 56.94 317.624 56.97 317.024 57V56.055C318.074 56.055 318.809 55.83 319.229 55.38C319.679 54.93 319.904 54.075 319.904 52.815V27.165C319.904 25.815 319.694 24.825 319.274 24.195C318.884 23.535 318.134 23.205 317.024 23.205V22.26C317.984 22.35 318.914 22.395 319.814 22.395C321.044 22.395 322.214 22.35 323.324 22.26C324.434 22.14 325.454 21.975 326.384 21.765ZM340.622 21.765V52.815C340.622 54.075 340.832 54.93 341.252 55.38C341.702 55.83 342.452 56.055 343.502 56.055V57C342.932 56.97 342.077 56.94 340.937 56.91C339.797 56.85 338.642 56.82 337.472 56.82C336.302 56.82 335.117 56.85 333.917 56.91C332.747 56.94 331.862 56.97 331.262 57V56.055C332.312 56.055 333.047 55.83 333.467 55.38C333.917 54.93 334.142 54.075 334.142 52.815V27.165C334.142 25.815 333.932 24.825 333.512 24.195C333.122 23.535 332.372 23.205 331.262 23.205V22.26C332.222 22.35 333.152 22.395 334.052 22.395C335.282 22.395 336.452 22.35 337.562 22.26C338.672 22.14 339.692 21.975 340.622 21.765ZM356.587 33.105C358.777 33.105 360.697 33.51 362.347 34.32C363.997 35.13 365.287 36.435 366.217 38.235C367.147 40.035 367.612 42.42 367.612 45.39C367.612 48.36 367.147 50.745 366.217 52.545C365.287 54.315 363.997 55.605 362.347 56.415C360.697 57.225 358.777 57.63 356.587 57.63C354.457 57.63 352.552 57.225 350.872 56.415C349.222 55.605 347.917 54.315 346.957 52.545C346.027 50.745 345.562 48.36 345.562 45.39C345.562 42.42 346.027 40.035 346.957 38.235C347.917 36.435 349.222 35.13 350.872 34.32C352.552 33.51 354.457 33.105 356.587 33.105ZM356.587 34.005C355.387 34.005 354.382 34.905 353.572 36.705C352.762 38.475 352.357 41.37 352.357 45.39C352.357 49.41 352.762 52.305 353.572 54.075C354.382 55.845 355.387 56.73 356.587 56.73C357.817 56.73 358.822 55.845 359.602 54.075C360.412 52.305 360.817 49.41 360.817 45.39C360.817 41.37 360.412 38.475 359.602 36.705C358.822 34.905 357.817 34.005 356.587 34.005ZM375.237 50.7C375.987 50.7 376.632 50.835 377.172 51.105C377.712 51.375 378.132 51.765 378.432 52.275C378.762 52.695 379.002 53.25 379.152 53.94C379.332 54.63 379.422 55.32 379.422 56.01C379.422 57.51 379.032 58.89 378.252 60.15C377.502 61.44 376.317 62.46 374.697 63.21L374.292 62.4C375.132 62.04 375.882 61.485 376.542 60.735C377.202 59.985 377.592 59.22 377.712 58.44C377.862 57.78 377.862 57.15 377.712 56.55C377.052 57.27 376.182 57.63 375.102 57.63C374.052 57.63 373.197 57.33 372.537 56.73C371.877 56.1 371.547 55.245 371.547 54.165C371.547 53.115 371.892 52.275 372.582 51.645C373.302 51.015 374.187 50.7 375.237 50.7ZM409.477 33.105C410.737 33.105 411.757 33.27 412.537 33.6C413.317 33.9 413.947 34.32 414.427 34.86C414.907 35.43 415.252 36.18 415.462 37.11C415.672 38.01 415.777 39.21 415.777 40.71V52.815C415.777 54.075 415.972 54.93 416.362 55.38C416.752 55.83 417.427 56.055 418.387 56.055V57C417.847 56.97 417.022 56.94 415.912 56.91C414.832 56.85 413.767 56.82 412.717 56.82C411.637 56.82 410.572 56.85 409.522 56.91C408.472 56.94 407.677 56.97 407.137 57V56.055C407.947 56.055 408.502 55.83 408.802 55.38C409.132 54.93 409.297 54.075 409.297 52.815V38.82C409.297 38.07 409.237 37.425 409.117 36.885C408.997 36.315 408.757 35.88 408.397 35.58C408.067 35.25 407.557 35.085 406.867 35.085C406.087 35.085 405.367 35.31 404.707 35.76C404.047 36.21 403.507 36.84 403.087 37.65C402.697 38.43 402.502 39.315 402.502 40.305V52.815C402.502 54.075 402.667 54.93 402.997 55.38C403.327 55.83 403.882 56.055 404.662 56.055V57C404.182 56.97 403.432 56.94 402.412 56.91C401.422 56.85 400.402 56.82 399.352 56.82C398.212 56.82 397.042 56.85 395.842 56.91C394.642 56.94 393.742 56.97 393.142 57V56.055C394.192 56.055 394.927 55.83 395.347 55.38C395.797 54.93 396.022 54.075 396.022 52.815V38.64C396.022 37.29 395.812 36.3 395.392 35.67C395.002 35.01 394.252 34.68 393.142 34.68V33.735C394.102 33.825 395.032 33.87 395.932 33.87C397.192 33.87 398.362 33.825 399.442 33.735C400.552 33.615 401.572 33.45 402.502 33.24V37.29C403.222 35.79 404.197 34.725 405.427 34.095C406.657 33.435 408.007 33.105 409.477 33.105ZM423.022 33.105C424.282 33.105 425.302 33.27 426.082 33.6C426.862 33.9 427.492 34.32 427.972 34.86C428.452 35.43 428.797 36.18 429.007 37.11C429.217 38.01 429.322 39.21 429.322 40.71V52.815C429.322 54.075 429.532 54.93 429.952 55.38C430.402 55.83 431.152 56.055 432.202 56.055V57C431.632 56.97 430.777 56.94 429.637 56.91C428.497 56.85 427.372 56.82 426.262 56.82C425.182 56.82 424.117 56.85 423.067 56.91C422.017 56.94 421.222 56.97 420.682 57V56.055C421.492 56.055 422.047 55.83 422.347 55.38C422.677 54.93 422.842 54.075 422.842 52.815V38.82C422.842 38.07 422.767 37.425 422.617 36.885C422.497 36.315 422.242 35.88 421.852 35.58C421.492 35.25 420.922 35.085 420.142 35.085C419.362 35.085 418.642 35.325 417.982 35.805C417.322 36.285 416.782 36.93 416.362 37.74C415.972 38.55 415.762 39.45 415.732 40.44L415.507 37.695C416.317 35.895 417.382 34.68 418.702 34.05C420.052 33.42 421.492 33.105 423.022 33.105ZM455.4 33.735V34.635C454.83 34.785 454.29 35.145 453.78 35.715C453.27 36.255 452.775 37.185 452.295 38.505L445.95 56.325L444.285 59.475L434.475 37.2C433.965 36.03 433.455 35.325 432.945 35.085C432.465 34.815 432.045 34.68 431.685 34.68V33.735C432.675 33.825 433.695 33.9 434.745 33.96C435.825 33.99 436.86 34.005 437.85 34.005C439.08 34.005 440.205 33.975 441.225 33.915C442.245 33.855 443.205 33.795 444.105 33.735V34.68C443.505 34.68 442.935 34.725 442.395 34.815C441.885 34.875 441.525 35.085 441.315 35.445C441.135 35.775 441.225 36.36 441.585 37.2L447.255 50.88L446.85 51.15L450.18 41.835C450.75 40.215 450.99 38.895 450.9 37.875C450.81 36.825 450.48 36.045 449.91 35.535C449.34 34.995 448.56 34.695 447.57 34.635V33.735C448.05 33.765 448.545 33.795 449.055 33.825C449.565 33.825 450.075 33.84 450.585 33.87C451.095 33.87 451.545 33.87 451.935 33.87C452.535 33.87 453.165 33.855 453.825 33.825C454.485 33.795 455.01 33.765 455.4 33.735ZM445.95 56.325L444.24 61.14C443.94 61.89 443.625 62.52 443.295 63.03C442.995 63.57 442.65 64.005 442.26 64.335C441.84 64.695 441.3 64.965 440.64 65.145C439.98 65.355 439.215 65.46 438.345 65.46C437.625 65.46 436.875 65.34 436.095 65.1C435.345 64.86 434.715 64.47 434.205 63.93C433.695 63.39 433.44 62.7 433.44 61.86C433.44 60.93 433.77 60.18 434.43 59.61C435.09 59.07 435.96 58.8 437.04 58.8C438.03 58.8 438.84 59.04 439.47 59.52C440.1 60 440.415 60.705 440.415 61.635C440.415 62.235 440.22 62.805 439.83 63.345C439.47 63.885 438.915 64.29 438.165 64.56C438.315 64.59 438.495 64.605 438.705 64.605C438.915 64.605 439.08 64.605 439.2 64.605C440.1 64.605 440.895 64.32 441.585 63.75C442.275 63.18 442.845 62.28 443.295 61.05L444.87 56.415L445.95 56.325ZM482.699 33.105C483.959 33.105 484.979 33.27 485.759 33.6C486.569 33.9 487.199 34.32 487.649 34.86C488.129 35.43 488.474 36.165 488.684 37.065C488.924 37.965 489.044 39.18 489.044 40.71V52.815C489.044 54.075 489.254 54.93 489.674 55.38C490.124 55.83 490.874 56.055 491.924 56.055V57C491.354 56.97 490.499 56.94 489.359 56.91C488.219 56.85 487.094 56.82 485.984 56.82C484.844 56.82 483.719 56.85 482.609 56.91C481.529 56.94 480.704 56.97 480.134 57V56.055C481.034 56.055 481.664 55.83 482.024 55.38C482.384 54.93 482.564 54.075 482.564 52.815V38.82C482.564 38.07 482.489 37.425 482.339 36.885C482.189 36.315 481.919 35.88 481.529 35.58C481.139 35.25 480.554 35.085 479.774 35.085C478.964 35.085 478.214 35.31 477.524 35.76C476.864 36.21 476.324 36.84 475.904 37.65C475.514 38.43 475.319 39.315 475.319 40.305V52.815C475.319 54.075 475.499 54.93 475.859 55.38C476.249 55.83 476.879 56.055 477.749 56.055V57C477.209 56.97 476.414 56.94 475.364 56.91C474.344 56.85 473.279 56.82 472.169 56.82C471.029 56.82 469.859 56.85 468.659 56.91C467.459 56.94 466.559 56.97 465.959 57V56.055C467.009 56.055 467.744 55.83 468.164 55.38C468.614 54.93 468.839 54.075 468.839 52.815V38.64C468.839 37.29 468.629 36.3 468.209 35.67C467.819 35.01 467.069 34.68 465.959 34.68V33.735C466.919 33.825 467.849 33.87 468.749 33.87C470.009 33.87 471.179 33.825 472.259 33.735C473.369 33.615 474.389 33.45 475.319 33.24V37.29C476.069 35.76 477.089 34.68 478.379 34.05C479.669 33.42 481.109 33.105 482.699 33.105ZM499.811 57.315C498.461 57.315 497.336 57.06 496.436 56.55C495.536 56.04 494.876 55.365 494.456 54.525C494.036 53.655 493.826 52.71 493.826 51.69C493.826 50.4 494.111 49.35 494.681 48.54C495.281 47.73 496.046 47.07 496.976 46.56C497.906 46.05 498.881 45.63 499.901 45.3C500.951 44.97 501.941 44.655 502.871 44.355C503.831 44.025 504.596 43.65 505.166 43.23C505.766 42.78 506.066 42.21 506.066 41.52V38.01C506.066 37.23 505.931 36.54 505.661 35.94C505.421 35.31 505.031 34.83 504.491 34.5C503.981 34.17 503.306 34.005 502.466 34.005C501.866 34.005 501.266 34.095 500.666 34.275C500.066 34.425 499.571 34.695 499.181 35.085C500.021 35.385 500.666 35.85 501.116 36.48C501.596 37.08 501.836 37.77 501.836 38.55C501.836 39.57 501.476 40.38 500.756 40.98C500.066 41.58 499.241 41.88 498.281 41.88C497.201 41.88 496.376 41.55 495.806 40.89C495.266 40.2 494.996 39.375 494.996 38.415C494.996 37.545 495.206 36.825 495.626 36.255C496.076 35.685 496.691 35.145 497.471 34.635C498.311 34.155 499.316 33.78 500.486 33.51C501.686 33.24 502.976 33.105 504.356 33.105C505.736 33.105 506.981 33.255 508.091 33.555C509.201 33.825 510.131 34.335 510.881 35.085C511.571 35.775 512.021 36.63 512.231 37.65C512.441 38.64 512.546 39.9 512.546 41.43V53.67C512.546 54.42 512.621 54.945 512.771 55.245C512.921 55.515 513.176 55.65 513.536 55.65C513.806 55.65 514.061 55.575 514.301 55.425C514.571 55.275 514.856 55.095 515.156 54.885L515.606 55.65C514.976 56.19 514.241 56.61 513.401 56.91C512.591 57.18 511.676 57.315 510.656 57.315C509.546 57.315 508.661 57.165 508.001 56.865C507.341 56.535 506.861 56.1 506.561 55.56C506.291 55.02 506.156 54.39 506.156 53.67C505.436 54.81 504.566 55.71 503.546 56.37C502.526 57 501.281 57.315 499.811 57.315ZM503.006 54.435C503.606 54.435 504.146 54.3 504.626 54.03C505.136 53.73 505.616 53.25 506.066 52.59V43.365C505.796 43.815 505.421 44.22 504.941 44.58C504.461 44.94 503.951 45.315 503.411 45.705C502.871 46.065 502.346 46.47 501.836 46.92C501.356 47.37 500.966 47.925 500.666 48.585C500.366 49.245 500.216 50.04 500.216 50.97C500.216 52.14 500.471 53.01 500.981 53.58C501.491 54.15 502.166 54.435 503.006 54.435ZM533.227 33.105C534.487 33.105 535.507 33.27 536.287 33.6C537.067 33.9 537.697 34.32 538.177 34.86C538.657 35.43 539.002 36.18 539.212 37.11C539.422 38.01 539.527 39.21 539.527 40.71V52.815C539.527 54.075 539.722 54.93 540.112 55.38C540.502 55.83 541.177 56.055 542.137 56.055V57C541.597 56.97 540.772 56.94 539.662 56.91C538.582 56.85 537.517 56.82 536.467 56.82C535.387 56.82 534.322 56.85 533.272 56.91C532.222 56.94 531.427 56.97 530.887 57V56.055C531.697 56.055 532.252 55.83 532.552 55.38C532.882 54.93 533.047 54.075 533.047 52.815V38.82C533.047 38.07 532.987 37.425 532.867 36.885C532.747 36.315 532.507 35.88 532.147 35.58C531.817 35.25 531.307 35.085 530.617 35.085C529.837 35.085 529.117 35.31 528.457 35.76C527.797 36.21 527.257 36.84 526.837 37.65C526.447 38.43 526.252 39.315 526.252 40.305V52.815C526.252 54.075 526.417 54.93 526.747 55.38C527.077 55.83 527.632 56.055 528.412 56.055V57C527.932 56.97 527.182 56.94 526.162 56.91C525.172 56.85 524.152 56.82 523.102 56.82C521.962 56.82 520.792 56.85 519.592 56.91C518.392 56.94 517.492 56.97 516.892 57V56.055C517.942 56.055 518.677 55.83 519.097 55.38C519.547 54.93 519.772 54.075 519.772 52.815V38.64C519.772 37.29 519.562 36.3 519.142 35.67C518.752 35.01 518.002 34.68 516.892 34.68V33.735C517.852 33.825 518.782 33.87 519.682 33.87C520.942 33.87 522.112 33.825 523.192 33.735C524.302 33.615 525.322 33.45 526.252 33.24V37.29C526.972 35.79 527.947 34.725 529.177 34.095C530.407 33.435 531.757 33.105 533.227 33.105ZM546.772 33.105C548.032 33.105 549.052 33.27 549.832 33.6C550.612 33.9 551.242 34.32 551.722 34.86C552.202 35.43 552.547 36.18 552.757 37.11C552.967 38.01 553.072 39.21 553.072 40.71V52.815C553.072 54.075 553.282 54.93 553.702 55.38C554.152 55.83 554.902 56.055 555.952 56.055V57C555.382 56.97 554.527 56.94 553.387 56.91C552.247 56.85 551.122 56.82 550.012 56.82C548.932 56.82 547.867 56.85 546.817 56.91C545.767 56.94 544.972 56.97 544.432 57V56.055C545.242 56.055 545.797 55.83 546.097 55.38C546.427 54.93 546.592 54.075 546.592 52.815V38.82C546.592 38.07 546.517 37.425 546.367 36.885C546.247 36.315 545.992 35.88 545.602 35.58C545.242 35.25 544.672 35.085 543.892 35.085C543.112 35.085 542.392 35.325 541.732 35.805C541.072 36.285 540.532 36.93 540.112 37.74C539.722 38.55 539.512 39.45 539.482 40.44L539.257 37.695C540.067 35.895 541.132 34.68 542.452 34.05C543.802 33.42 545.242 33.105 546.772 33.105ZM569.239 33.105C571.879 33.105 573.949 33.885 575.449 35.445C576.949 37.005 577.699 39.555 577.699 43.095H562.894L562.804 42.24H572.029C572.059 40.77 571.969 39.42 571.759 38.19C571.549 36.93 571.219 35.925 570.769 35.175C570.319 34.425 569.719 34.05 568.969 34.05C567.919 34.05 567.019 34.71 566.269 36.03C565.549 37.35 565.114 39.54 564.964 42.6L565.099 42.87C565.069 43.23 565.039 43.605 565.009 43.995C565.009 44.385 565.009 44.79 565.009 45.21C565.009 47.28 565.294 48.96 565.864 50.25C566.464 51.54 567.214 52.485 568.114 53.085C569.014 53.655 569.929 53.94 570.859 53.94C571.489 53.94 572.134 53.85 572.794 53.67C573.484 53.46 574.174 53.1 574.864 52.59C575.554 52.05 576.199 51.3 576.799 50.34L577.609 50.61C577.249 51.75 576.679 52.86 575.899 53.94C575.119 55.02 574.129 55.905 572.929 56.595C571.729 57.285 570.289 57.63 568.609 57.63C566.569 57.63 564.769 57.195 563.209 56.325C561.649 55.455 560.419 54.135 559.519 52.365C558.649 50.595 558.214 48.345 558.214 45.615C558.214 42.825 558.679 40.5 559.609 38.64C560.569 36.78 561.874 35.4 563.524 34.5C565.204 33.57 567.109 33.105 569.239 33.105ZM596.658 22.125C597.918 22.125 598.908 22.44 599.628 23.07C600.378 23.67 600.753 24.51 600.753 25.59C600.753 26.67 600.378 27.525 599.628 28.155C598.908 28.755 597.918 29.055 596.658 29.055C595.398 29.055 594.393 28.755 593.643 28.155C592.923 27.525 592.563 26.67 592.563 25.59C592.563 24.51 592.923 23.67 593.643 23.07C594.393 22.44 595.398 22.125 596.658 22.125ZM600.168 33.24V52.815C600.168 54.075 600.378 54.93 600.798 55.38C601.248 55.83 601.998 56.055 603.048 56.055V57C602.508 56.97 601.668 56.94 600.528 56.91C599.388 56.85 598.233 56.82 597.063 56.82C595.893 56.82 594.708 56.85 593.508 56.91C592.308 56.94 591.408 56.97 590.808 57V56.055C591.858 56.055 592.593 55.83 593.013 55.38C593.463 54.93 593.688 54.075 593.688 52.815V38.64C593.688 37.29 593.478 36.3 593.058 35.67C592.668 35.01 591.918 34.68 590.808 34.68V33.735C591.768 33.825 592.698 33.87 593.598 33.87C594.858 33.87 596.028 33.825 597.108 33.735C598.218 33.615 599.238 33.45 600.168 33.24ZM613.912 33.105C615.172 33.105 616.267 33.27 617.197 33.6C618.157 33.9 618.847 34.2 619.267 34.5C620.287 35.19 620.917 34.74 621.157 33.15H622.102C622.042 33.99 621.997 35.025 621.967 36.255C621.937 37.455 621.922 39.06 621.922 41.07H620.977C620.827 39.96 620.542 38.865 620.122 37.785C619.702 36.705 619.087 35.82 618.277 35.13C617.497 34.44 616.477 34.095 615.217 34.095C614.347 34.095 613.612 34.35 613.012 34.86C612.412 35.34 612.112 36.045 612.112 36.975C612.112 37.875 612.382 38.67 612.922 39.36C613.462 40.02 614.152 40.665 614.992 41.295C615.862 41.895 616.762 42.54 617.692 43.23C618.682 43.98 619.582 44.73 620.392 45.48C621.202 46.2 621.847 46.995 622.327 47.865C622.807 48.735 623.047 49.77 623.047 50.97C623.047 52.32 622.657 53.505 621.877 54.525C621.097 55.515 620.062 56.28 618.772 56.82C617.512 57.36 616.102 57.63 614.542 57.63C613.642 57.63 612.832 57.54 612.112 57.36C611.422 57.18 610.822 56.955 610.312 56.685C609.922 56.505 609.547 56.34 609.187 56.19C608.857 56.01 608.542 55.86 608.242 55.74C607.942 55.65 607.672 55.755 607.432 56.055C607.222 56.355 607.057 56.775 606.937 57.315H605.992C606.052 56.355 606.097 55.185 606.127 53.805C606.157 52.425 606.172 50.595 606.172 48.315H607.117C607.297 49.935 607.627 51.375 608.107 52.635C608.587 53.865 609.232 54.84 610.042 55.56C610.882 56.25 611.932 56.595 613.192 56.595C613.702 56.595 614.197 56.49 614.677 56.28C615.157 56.07 615.547 55.725 615.847 55.245C616.177 54.765 616.342 54.15 616.342 53.4C616.342 52.08 615.907 50.985 615.037 50.115C614.197 49.245 613.117 48.3 611.797 47.28C610.837 46.5 609.922 45.735 609.052 44.985C608.212 44.205 607.522 43.365 606.982 42.465C606.442 41.535 606.172 40.485 606.172 39.315C606.172 37.965 606.532 36.825 607.252 35.895C607.972 34.965 608.917 34.275 610.087 33.825C611.287 33.345 612.562 33.105 613.912 33.105Z" fill="url(#paint0_linear_146_19)"/>
<path d="M659.544 228.14V229.04C658.584 229.07 657.849 229.19 657.339 229.4C656.859 229.58 656.544 229.94 656.394 230.48C656.244 230.99 656.169 231.8 656.169 232.91V255.23C656.169 256.31 656.244 257.12 656.394 257.66C656.574 258.2 656.904 258.56 657.384 258.74C657.864 258.92 658.584 259.04 659.544 259.1V260C658.734 259.94 657.714 259.91 656.484 259.91C655.254 259.88 654.009 259.865 652.749 259.865C651.279 259.865 649.914 259.88 648.654 259.91C647.424 259.91 646.419 259.94 645.639 260V259.1C646.599 259.04 647.319 258.92 647.799 258.74C648.279 258.56 648.594 258.2 648.744 257.66C648.924 257.12 649.014 256.31 649.014 255.23V232.91C649.014 231.8 648.924 230.99 648.744 230.48C648.594 229.94 648.264 229.58 647.754 229.4C647.274 229.19 646.569 229.07 645.639 229.04V228.14C646.419 228.17 647.424 228.2 648.654 228.23C649.914 228.26 651.279 228.275 652.749 228.275C654.009 228.275 655.254 228.26 656.484 228.23C657.714 228.2 658.734 228.17 659.544 228.14ZM666.383 227.51C667.133 227.51 667.778 227.645 668.318 227.915C668.858 228.185 669.278 228.575 669.578 229.085C669.908 229.505 670.148 230.06 670.298 230.75C670.478 231.44 670.568 232.13 670.568 232.82C670.568 234.32 670.178 235.715 669.398 237.005C668.648 238.265 667.463 239.27 665.843 240.02L665.438 239.21C666.278 238.85 667.028 238.295 667.688 237.545C668.348 236.795 668.738 236.03 668.858 235.25C669.008 234.59 669.008 233.96 668.858 233.36C668.198 234.08 667.328 234.44 666.248 234.44C665.198 234.44 664.343 234.14 663.683 233.54C663.023 232.91 662.693 232.055 662.693 230.975C662.693 229.925 663.038 229.085 663.728 228.455C664.448 227.825 665.333 227.51 666.383 227.51ZM689.825 236.105C691.085 236.105 692.105 236.27 692.885 236.6C693.665 236.9 694.295 237.32 694.775 237.86C695.255 238.43 695.6 239.18 695.81 240.11C696.02 241.01 696.125 242.21 696.125 243.71V255.815C696.125 257.075 696.32 257.93 696.71 258.38C697.1 258.83 697.775 259.055 698.735 259.055V260C698.195 259.97 697.37 259.94 696.26 259.91C695.18 259.85 694.115 259.82 693.065 259.82C691.985 259.82 690.92 259.85 689.87 259.91C688.82 259.94 688.025 259.97 687.485 260V259.055C688.295 259.055 688.85 258.83 689.15 258.38C689.48 257.93 689.645 257.075 689.645 255.815V241.82C689.645 241.07 689.585 240.425 689.465 239.885C689.345 239.315 689.105 238.88 688.745 238.58C688.415 238.25 687.905 238.085 687.215 238.085C686.435 238.085 685.715 238.31 685.055 238.76C684.395 239.21 683.855 239.84 683.435 240.65C683.045 241.43 682.85 242.315 682.85 243.305V255.815C682.85 257.075 683.015 257.93 683.345 258.38C683.675 258.83 684.23 259.055 685.01 259.055V260C684.53 259.97 683.78 259.94 682.76 259.91C681.77 259.85 680.75 259.82 679.7 259.82C678.56 259.82 677.39 259.85 676.19 259.91C674.99 259.94 674.09 259.97 673.49 260V259.055C674.54 259.055 675.275 258.83 675.695 258.38C676.145 257.93 676.37 257.075 676.37 255.815V241.64C676.37 240.29 676.16 239.3 675.74 238.67C675.35 238.01 674.6 237.68 673.49 237.68V236.735C674.45 236.825 675.38 236.87 676.28 236.87C677.54 236.87 678.71 236.825 679.79 236.735C680.9 236.615 681.92 236.45 682.85 236.24V240.29C683.57 238.79 684.545 237.725 685.775 237.095C687.005 236.435 688.355 236.105 689.825 236.105ZM703.37 236.105C704.63 236.105 705.65 236.27 706.43 236.6C707.21 236.9 707.84 237.32 708.32 237.86C708.8 238.43 709.145 239.18 709.355 240.11C709.565 241.01 709.67 242.21 709.67 243.71V255.815C709.67 257.075 709.88 257.93 710.3 258.38C710.75 258.83 711.5 259.055 712.55 259.055V260C711.98 259.97 711.125 259.94 709.985 259.91C708.845 259.85 707.72 259.82 706.61 259.82C705.53 259.82 704.465 259.85 703.415 259.91C702.365 259.94 701.57 259.97 701.03 260V259.055C701.84 259.055 702.395 258.83 702.695 258.38C703.025 257.93 703.19 257.075 703.19 255.815V241.82C703.19 241.07 703.115 240.425 702.965 239.885C702.845 239.315 702.59 238.88 702.2 238.58C701.84 238.25 701.27 238.085 700.49 238.085C699.71 238.085 698.99 238.325 698.33 238.805C697.67 239.285 697.13 239.93 696.71 240.74C696.32 241.55 696.11 242.45 696.08 243.44L695.855 240.695C696.665 238.895 697.73 237.68 699.05 237.05C700.4 236.42 701.84 236.105 703.37 236.105ZM730.94 260.315C729.59 260.315 728.465 260.06 727.565 259.55C726.665 259.04 726.005 258.365 725.585 257.525C725.165 256.655 724.955 255.71 724.955 254.69C724.955 253.4 725.24 252.35 725.81 251.54C726.41 250.73 727.175 250.07 728.105 249.56C729.035 249.05 730.01 248.63 731.03 248.3C732.08 247.97 733.07 247.655 734 247.355C734.96 247.025 735.725 246.65 736.295 246.23C736.895 245.78 737.195 245.21 737.195 244.52V241.01C737.195 240.23 737.06 239.54 736.79 238.94C736.55 238.31 736.16 237.83 735.62 237.5C735.11 237.17 734.435 237.005 733.595 237.005C732.995 237.005 732.395 237.095 731.795 237.275C731.195 237.425 730.7 237.695 730.31 238.085C731.15 238.385 731.795 238.85 732.245 239.48C732.725 240.08 732.965 240.77 732.965 241.55C732.965 242.57 732.605 243.38 731.885 243.98C731.195 244.58 730.37 244.88 729.41 244.88C728.33 244.88 727.505 244.55 726.935 243.89C726.395 243.2 726.125 242.375 726.125 241.415C726.125 240.545 726.335 239.825 726.755 239.255C727.205 238.685 727.82 238.145 728.6 237.635C729.44 237.155 730.445 236.78 731.615 236.51C732.815 236.24 734.105 236.105 735.485 236.105C736.865 236.105 738.11 236.255 739.22 236.555C740.33 236.825 741.26 237.335 742.01 238.085C742.7 238.775 743.15 239.63 743.36 240.65C743.57 241.64 743.675 242.9 743.675 244.43V256.67C743.675 257.42 743.75 257.945 743.9 258.245C744.05 258.515 744.305 258.65 744.665 258.65C744.935 258.65 745.19 258.575 745.43 258.425C745.7 258.275 745.985 258.095 746.285 257.885L746.735 258.65C746.105 259.19 745.37 259.61 744.53 259.91C743.72 260.18 742.805 260.315 741.785 260.315C740.675 260.315 739.79 260.165 739.13 259.865C738.47 259.535 737.99 259.1 737.69 258.56C737.42 258.02 737.285 257.39 737.285 256.67C736.565 257.81 735.695 258.71 734.675 259.37C733.655 260 732.41 260.315 730.94 260.315ZM734.135 257.435C734.735 257.435 735.275 257.3 735.755 257.03C736.265 256.73 736.745 256.25 737.195 255.59V246.365C736.925 246.815 736.55 247.22 736.07 247.58C735.59 247.94 735.08 248.315 734.54 248.705C734 249.065 733.475 249.47 732.965 249.92C732.485 250.37 732.095 250.925 731.795 251.585C731.495 252.245 731.345 253.04 731.345 253.97C731.345 255.14 731.6 256.01 732.11 256.58C732.62 257.15 733.295 257.435 734.135 257.435ZM775.45 227.51C777.49 227.51 779.155 227.795 780.445 228.365C781.735 228.935 782.89 229.625 783.91 230.435C784.27 230.705 784.57 230.84 784.81 230.84C785.38 230.84 785.755 229.94 785.935 228.14H786.97C786.91 229.31 786.865 230.735 786.835 232.415C786.805 234.065 786.79 236.27 786.79 239.03H785.755C785.545 237.23 785.215 235.67 784.765 234.35C784.345 233 783.55 231.845 782.38 230.885C781.66 230.195 780.76 229.655 779.68 229.265C778.63 228.875 777.565 228.68 776.485 228.68C774.835 228.68 773.425 229.115 772.255 229.985C771.085 230.825 770.125 231.98 769.375 233.45C768.625 234.92 768.07 236.585 767.71 238.445C767.35 240.275 767.17 242.18 767.17 244.16C767.17 249.56 767.905 253.505 769.375 255.995C770.875 258.485 773.02 259.73 775.81 259.73C776.53 259.73 777.16 259.64 777.7 259.46C778.24 259.28 778.675 259.07 779.005 258.83C779.425 258.53 779.71 258.215 779.86 257.885C780.01 257.525 780.085 257.06 780.085 256.49V252.08C780.085 250.7 779.965 249.68 779.725 249.02C779.515 248.33 779.08 247.865 778.42 247.625C777.76 247.385 776.8 247.25 775.54 247.22V246.32C776.17 246.35 776.92 246.38 777.79 246.41C778.69 246.41 779.62 246.425 780.58 246.455C781.54 246.455 782.425 246.455 783.235 246.455C784.495 246.455 785.65 246.44 786.7 246.41C787.75 246.38 788.605 246.35 789.265 246.32V247.22C788.695 247.25 788.26 247.355 787.96 247.535C787.69 247.715 787.495 248.075 787.375 248.615C787.285 249.155 787.24 249.98 787.24 251.09V260H786.34C786.31 259.49 786.19 258.935 785.98 258.335C785.8 257.735 785.485 257.435 785.035 257.435C784.825 257.435 784.54 257.495 784.18 257.615C783.85 257.705 783.325 257.96 782.605 258.38C781.495 259.01 780.325 259.55 779.095 260C777.865 260.42 776.575 260.63 775.225 260.63C771.745 260.63 768.805 259.985 766.405 258.695C764.005 257.405 762.19 255.56 760.96 253.16C759.76 250.73 759.16 247.82 759.16 244.43C759.16 241.01 759.85 238.04 761.23 235.52C762.64 233 764.56 231.035 766.99 229.625C769.45 228.215 772.27 227.51 775.45 227.51ZM806.875 236.105C807.835 236.105 808.615 236.315 809.215 236.735C809.815 237.125 810.25 237.635 810.52 238.265C810.82 238.895 810.97 239.555 810.97 240.245C810.97 241.355 810.64 242.27 809.98 242.99C809.35 243.68 808.51 244.025 807.46 244.025C806.41 244.025 805.585 243.77 804.985 243.26C804.415 242.72 804.13 242.015 804.13 241.145C804.13 240.305 804.31 239.615 804.67 239.075C805.06 238.505 805.54 238.025 806.11 237.635C805.69 237.515 805.27 237.53 804.85 237.68C804.28 237.77 803.74 238.01 803.23 238.4C802.72 238.76 802.285 239.225 801.925 239.795C801.565 240.335 801.28 240.935 801.07 241.595C800.86 242.225 800.755 242.84 800.755 243.44V255.365C800.755 256.805 801.1 257.78 801.79 258.29C802.51 258.8 803.575 259.055 804.985 259.055V260C804.295 259.97 803.29 259.94 801.97 259.91C800.65 259.85 799.27 259.82 797.83 259.82C796.63 259.82 795.415 259.85 794.185 259.91C792.955 259.94 792.025 259.97 791.395 260V259.055C792.445 259.055 793.18 258.83 793.6 258.38C794.05 257.93 794.275 257.075 794.275 255.815V241.64C794.275 240.29 794.065 239.3 793.645 238.67C793.255 238.01 792.505 237.68 791.395 237.68V236.735C792.355 236.825 793.285 236.87 794.185 236.87C795.445 236.87 796.615 236.825 797.695 236.735C798.805 236.615 799.825 236.45 800.755 236.24V240.425C801.115 239.615 801.595 238.88 802.195 238.22C802.795 237.56 803.485 237.05 804.265 236.69C805.045 236.3 805.915 236.105 806.875 236.105ZM818.611 260.315C817.261 260.315 816.136 260.06 815.236 259.55C814.336 259.04 813.676 258.365 813.256 257.525C812.836 256.655 812.626 255.71 812.626 254.69C812.626 253.4 812.911 252.35 813.481 251.54C814.081 250.73 814.846 250.07 815.776 249.56C816.706 249.05 817.681 248.63 818.701 248.3C819.751 247.97 820.741 247.655 821.671 247.355C822.631 247.025 823.396 246.65 823.966 246.23C824.566 245.78 824.866 245.21 824.866 244.52V241.01C824.866 240.23 824.731 239.54 824.461 238.94C824.221 238.31 823.831 237.83 823.291 237.5C822.781 237.17 822.106 237.005 821.266 237.005C820.666 237.005 820.066 237.095 819.466 237.275C818.866 237.425 818.371 237.695 817.981 238.085C818.821 238.385 819.466 238.85 819.916 239.48C820.396 240.08 820.636 240.77 820.636 241.55C820.636 242.57 820.276 243.38 819.556 243.98C818.866 244.58 818.041 244.88 817.081 244.88C816.001 244.88 815.176 244.55 814.606 243.89C814.066 243.2 813.796 242.375 813.796 241.415C813.796 240.545 814.006 239.825 814.426 239.255C814.876 238.685 815.491 238.145 816.271 237.635C817.111 237.155 818.116 236.78 819.286 236.51C820.486 236.24 821.776 236.105 823.156 236.105C824.536 236.105 825.781 236.255 826.891 236.555C828.001 236.825 828.931 237.335 829.681 238.085C830.371 238.775 830.821 239.63 831.031 240.65C831.241 241.64 831.346 242.9 831.346 244.43V256.67C831.346 257.42 831.421 257.945 831.571 258.245C831.721 258.515 831.976 258.65 832.336 258.65C832.606 258.65 832.861 258.575 833.101 258.425C833.371 258.275 833.656 258.095 833.956 257.885L834.406 258.65C833.776 259.19 833.041 259.61 832.201 259.91C831.391 260.18 830.476 260.315 829.456 260.315C828.346 260.315 827.461 260.165 826.801 259.865C826.141 259.535 825.661 259.1 825.361 258.56C825.091 258.02 824.956 257.39 824.956 256.67C824.236 257.81 823.366 258.71 822.346 259.37C821.326 260 820.081 260.315 818.611 260.315ZM821.806 257.435C822.406 257.435 822.946 257.3 823.426 257.03C823.936 256.73 824.416 256.25 824.866 255.59V246.365C824.596 246.815 824.221 247.22 823.741 247.58C823.261 247.94 822.751 248.315 822.211 248.705C821.671 249.065 821.146 249.47 820.636 249.92C820.156 250.37 819.766 250.925 819.466 251.585C819.166 252.245 819.016 253.04 819.016 253.97C819.016 255.14 819.271 256.01 819.781 256.58C820.291 257.15 820.966 257.435 821.806 257.435ZM844.872 236.24V263.69C844.872 265.1 845.232 266.03 845.952 266.48C846.672 266.96 847.662 267.2 848.922 267.2V268.145C848.142 268.115 847.062 268.07 845.682 268.01C844.332 267.98 842.892 267.965 841.362 267.965C840.252 267.965 839.157 267.98 838.077 268.01C837.027 268.07 836.232 268.115 835.692 268.145V267.2C836.682 267.2 837.372 266.99 837.762 266.57C838.182 266.15 838.392 265.34 838.392 264.14V241.64C838.392 240.29 838.182 239.3 837.762 238.67C837.342 238.01 836.592 237.68 835.512 237.68V236.735C836.472 236.825 837.402 236.87 838.302 236.87C839.532 236.87 840.702 236.825 841.812 236.735C842.922 236.615 843.942 236.45 844.872 236.24ZM851.847 236.105C853.377 236.105 854.742 236.525 855.942 237.365C857.142 238.175 858.102 239.42 858.822 241.1C859.542 242.75 859.902 244.82 859.902 247.31C859.902 249.5 859.647 251.42 859.137 253.07C858.657 254.72 857.952 256.115 857.022 257.255C856.122 258.365 855.027 259.205 853.737 259.775C852.477 260.345 851.052 260.63 849.462 260.63C848.292 260.63 847.227 260.42 846.267 260C845.307 259.61 844.572 259.04 844.062 258.29L844.512 257.705C844.812 258.245 845.232 258.665 845.772 258.965C846.342 259.265 846.987 259.415 847.707 259.415C849.057 259.415 850.122 258.965 850.902 258.065C851.682 257.135 852.237 255.845 852.567 254.195C852.927 252.515 853.107 250.52 853.107 248.21C853.107 245.63 852.942 243.605 852.612 242.135C852.282 240.665 851.832 239.615 851.262 238.985C850.692 238.355 850.002 238.04 849.192 238.04C848.112 238.04 847.122 238.46 846.222 239.3C845.352 240.14 844.857 241.34 844.737 242.9L844.512 241.325C845.052 239.615 845.967 238.325 847.257 237.455C848.577 236.555 850.107 236.105 851.847 236.105ZM871.81 224.81V240.29C872.56 238.73 873.565 237.65 874.825 237.05C876.115 236.42 877.555 236.105 879.145 236.105C880.435 236.105 881.47 236.27 882.25 236.6C883.03 236.9 883.645 237.32 884.095 237.86C884.605 238.43 884.965 239.165 885.175 240.065C885.415 240.965 885.535 242.18 885.535 243.71V255.815C885.535 257.075 885.745 257.93 886.165 258.38C886.615 258.83 887.365 259.055 888.415 259.055V260C887.845 259.97 886.975 259.94 885.805 259.91C884.665 259.85 883.555 259.82 882.475 259.82C881.305 259.82 880.165 259.85 879.055 259.91C877.975 259.94 877.165 259.97 876.625 260V259.055C877.525 259.055 878.155 258.83 878.515 258.38C878.875 257.93 879.055 257.075 879.055 255.815V241.82C879.055 241.07 878.98 240.425 878.83 239.885C878.68 239.315 878.395 238.88 877.975 238.58C877.585 238.25 877.015 238.085 876.265 238.085C875.455 238.085 874.705 238.31 874.015 238.76C873.355 239.18 872.815 239.78 872.395 240.56C872.005 241.34 871.81 242.24 871.81 243.26V255.815C871.81 257.075 871.99 257.93 872.35 258.38C872.71 258.83 873.34 259.055 874.24 259.055V260C873.7 259.97 872.905 259.94 871.855 259.91C870.805 259.85 869.74 259.82 868.66 259.82C867.49 259.82 866.305 259.85 865.105 259.91C863.935 259.94 863.05 259.97 862.45 260V259.055C863.5 259.055 864.235 258.83 864.655 258.38C865.105 257.93 865.33 257.075 865.33 255.815V230.21C865.33 228.86 865.12 227.87 864.7 227.24C864.31 226.58 863.56 226.25 862.45 226.25V225.305C863.41 225.395 864.34 225.44 865.24 225.44C866.47 225.44 867.64 225.395 868.75 225.305C869.86 225.185 870.88 225.02 871.81 224.81ZM895.903 225.125C897.163 225.125 898.153 225.44 898.873 226.07C899.623 226.67 899.998 227.51 899.998 228.59C899.998 229.67 899.623 230.525 898.873 231.155C898.153 231.755 897.163 232.055 895.903 232.055C894.643 232.055 893.638 231.755 892.888 231.155C892.168 230.525 891.808 229.67 891.808 228.59C891.808 227.51 892.168 226.67 892.888 226.07C893.638 225.44 894.643 225.125 895.903 225.125ZM899.413 236.24V255.815C899.413 257.075 899.623 257.93 900.043 258.38C900.493 258.83 901.243 259.055 902.293 259.055V260C901.753 259.97 900.913 259.94 899.773 259.91C898.633 259.85 897.478 259.82 896.308 259.82C895.138 259.82 893.953 259.85 892.753 259.91C891.553 259.94 890.653 259.97 890.053 260V259.055C891.103 259.055 891.838 258.83 892.258 258.38C892.708 257.93 892.933 257.075 892.933 255.815V241.64C892.933 240.29 892.723 239.3 892.303 238.67C891.913 238.01 891.163 237.68 890.053 237.68V236.735C891.013 236.825 891.943 236.87 892.843 236.87C894.103 236.87 895.273 236.825 896.353 236.735C897.463 236.615 898.483 236.45 899.413 236.24ZM915.947 236.105C917.117 236.105 918.182 236.24 919.142 236.51C920.132 236.75 920.942 237.065 921.572 237.455C922.352 237.935 922.952 238.535 923.372 239.255C923.822 239.945 924.047 240.755 924.047 241.685C924.047 242.735 923.717 243.605 923.057 244.295C922.397 244.955 921.542 245.285 920.492 245.285C919.442 245.285 918.602 244.985 917.972 244.385C917.342 243.785 917.027 242.975 917.027 241.955C917.027 240.995 917.327 240.2 917.927 239.57C918.527 238.91 919.217 238.475 919.997 238.265C919.757 237.965 919.397 237.71 918.917 237.5C918.437 237.29 917.897 237.185 917.297 237.185C916.367 237.185 915.542 237.455 914.822 237.995C914.132 238.535 913.547 239.285 913.067 240.245C912.587 241.205 912.212 242.33 911.942 243.62C911.702 244.91 911.582 246.32 911.582 247.85C911.582 250.16 911.867 251.975 912.437 253.295C913.037 254.615 913.787 255.545 914.687 256.085C915.617 256.625 916.577 256.895 917.567 256.895C918.137 256.895 918.752 256.805 919.412 256.625C920.102 256.445 920.792 256.085 921.482 255.545C922.202 255.005 922.862 254.24 923.462 253.25L924.227 253.52C923.897 254.63 923.357 255.74 922.607 256.85C921.857 257.96 920.882 258.875 919.682 259.595C918.482 260.285 917.012 260.63 915.272 260.63C913.322 260.63 911.552 260.21 909.962 259.37C908.402 258.5 907.142 257.18 906.182 255.41C905.252 253.61 904.787 251.3 904.787 248.48C904.787 245.78 905.267 243.515 906.227 241.685C907.217 239.825 908.552 238.43 910.232 237.5C911.912 236.57 913.817 236.105 915.947 236.105ZM951.429 228.14C957.339 228.14 961.734 229.49 964.614 232.19C967.494 234.86 968.934 238.7 968.934 243.71C968.934 246.98 968.229 249.845 966.819 252.305C965.409 254.735 963.354 256.625 960.654 257.975C957.984 259.325 954.774 260 951.024 260C950.544 260 949.914 259.985 949.134 259.955C948.354 259.925 947.544 259.91 946.704 259.91C945.864 259.88 945.114 259.865 944.454 259.865C943.134 259.865 941.829 259.88 940.539 259.91C939.279 259.91 938.274 259.94 937.524 260V259.1C938.484 259.04 939.204 258.92 939.684 258.74C940.164 258.56 940.479 258.2 940.629 257.66C940.809 257.12 940.899 256.31 940.899 255.23V232.91C940.899 231.8 940.809 230.99 940.629 230.48C940.479 229.94 940.149 229.58 939.639 229.4C939.159 229.19 938.454 229.07 937.524 229.04V228.14C938.274 228.17 939.279 228.215 940.539 228.275C941.829 228.305 943.104 228.305 944.364 228.275C945.444 228.245 946.659 228.215 948.009 228.185C949.389 228.155 950.529 228.14 951.429 228.14ZM951.384 228.95C950.004 228.95 949.104 229.205 948.684 229.715C948.264 230.225 948.054 231.26 948.054 232.82V255.32C948.054 256.88 948.264 257.915 948.684 258.425C949.134 258.935 950.049 259.19 951.429 259.19C953.949 259.19 955.929 258.605 957.369 257.435C958.839 256.235 959.889 254.495 960.519 252.215C961.149 249.935 961.464 247.16 961.464 243.89C961.464 240.53 961.119 237.755 960.429 235.565C959.769 233.345 958.704 231.695 957.234 230.615C955.764 229.505 953.814 228.95 951.384 228.95ZM983.621 236.105C986.261 236.105 988.331 236.885 989.831 238.445C991.331 240.005 992.081 242.555 992.081 246.095H977.276L977.186 245.24H986.411C986.441 243.77 986.351 242.42 986.141 241.19C985.931 239.93 985.601 238.925 985.151 238.175C984.701 237.425 984.101 237.05 983.351 237.05C982.301 237.05 981.401 237.71 980.651 239.03C979.931 240.35 979.496 242.54 979.346 245.6L979.481 245.87C979.451 246.23 979.421 246.605 979.391 246.995C979.391 247.385 979.391 247.79 979.391 248.21C979.391 250.28 979.676 251.96 980.246 253.25C980.846 254.54 981.596 255.485 982.496 256.085C983.396 256.655 984.311 256.94 985.241 256.94C985.871 256.94 986.516 256.85 987.176 256.67C987.866 256.46 988.556 256.1 989.246 255.59C989.936 255.05 990.581 254.3 991.181 253.34L991.991 253.61C991.631 254.75 991.061 255.86 990.281 256.94C989.501 258.02 988.511 258.905 987.311 259.595C986.111 260.285 984.671 260.63 982.991 260.63C980.951 260.63 979.151 260.195 977.591 259.325C976.031 258.455 974.801 257.135 973.901 255.365C973.031 253.595 972.596 251.345 972.596 248.615C972.596 245.825 973.061 243.5 973.991 241.64C974.951 239.78 976.256 238.4 977.906 237.5C979.586 236.57 981.491 236.105 983.621 236.105ZM1003.6 236.105C1004.86 236.105 1005.95 236.27 1006.88 236.6C1007.84 236.9 1008.53 237.2 1008.95 237.5C1009.97 238.19 1010.6 237.74 1010.84 236.15H1011.79C1011.73 236.99 1011.68 238.025 1011.65 239.255C1011.62 240.455 1011.61 242.06 1011.61 244.07H1010.66C1010.51 242.96 1010.23 241.865 1009.81 240.785C1009.39 239.705 1008.77 238.82 1007.96 238.13C1007.18 237.44 1006.16 237.095 1004.9 237.095C1004.03 237.095 1003.3 237.35 1002.7 237.86C1002.1 238.34 1001.8 239.045 1001.8 239.975C1001.8 240.875 1002.07 241.67 1002.61 242.36C1003.15 243.02 1003.84 243.665 1004.68 244.295C1005.55 244.895 1006.45 245.54 1007.38 246.23C1008.37 246.98 1009.27 247.73 1010.08 248.48C1010.89 249.2 1011.53 249.995 1012.01 250.865C1012.49 251.735 1012.73 252.77 1012.73 253.97C1012.73 255.32 1012.34 256.505 1011.56 257.525C1010.78 258.515 1009.75 259.28 1008.46 259.82C1007.2 260.36 1005.79 260.63 1004.23 260.63C1003.33 260.63 1002.52 260.54 1001.8 260.36C1001.11 260.18 1000.51 259.955 999.996 259.685C999.606 259.505 999.231 259.34 998.871 259.19C998.541 259.01 998.226 258.86 997.926 258.74C997.626 258.65 997.356 258.755 997.116 259.055C996.906 259.355 996.741 259.775 996.621 260.315H995.676C995.736 259.355 995.781 258.185 995.811 256.805C995.841 255.425 995.856 253.595 995.856 251.315H996.801C996.981 252.935 997.311 254.375 997.791 255.635C998.271 256.865 998.916 257.84 999.726 258.56C1000.57 259.25 1001.62 259.595 1002.88 259.595C1003.39 259.595 1003.88 259.49 1004.36 259.28C1004.84 259.07 1005.23 258.725 1005.53 258.245C1005.86 257.765 1006.03 257.15 1006.03 256.4C1006.03 255.08 1005.59 253.985 1004.72 253.115C1003.88 252.245 1002.8 251.3 1001.48 250.28C1000.52 249.5 999.606 248.735 998.736 247.985C997.896 247.205 997.206 246.365 996.666 245.465C996.126 244.535 995.856 243.485 995.856 242.315C995.856 240.965 996.216 239.825 996.936 238.895C997.656 237.965 998.601 237.275 999.771 236.825C1000.97 236.345 1002.25 236.105 1003.6 236.105ZM1021.32 225.125C1022.58 225.125 1023.57 225.44 1024.29 226.07C1025.04 226.67 1025.42 227.51 1025.42 228.59C1025.42 229.67 1025.04 230.525 1024.29 231.155C1023.57 231.755 1022.58 232.055 1021.32 232.055C1020.06 232.055 1019.06 231.755 1018.31 231.155C1017.59 230.525 1017.23 229.67 1017.23 228.59C1017.23 227.51 1017.59 226.67 1018.31 226.07C1019.06 225.44 1020.06 225.125 1021.32 225.125ZM1024.83 236.24V255.815C1024.83 257.075 1025.04 257.93 1025.46 258.38C1025.91 258.83 1026.66 259.055 1027.71 259.055V260C1027.17 259.97 1026.33 259.94 1025.19 259.91C1024.05 259.85 1022.9 259.82 1021.73 259.82C1020.56 259.82 1019.37 259.85 1018.17 259.91C1016.97 259.94 1016.07 259.97 1015.47 260V259.055C1016.52 259.055 1017.26 258.83 1017.68 258.38C1018.13 257.93 1018.35 257.075 1018.35 255.815V241.64C1018.35 240.29 1018.14 239.3 1017.72 238.67C1017.33 238.01 1016.58 237.68 1015.47 237.68V236.735C1016.43 236.825 1017.36 236.87 1018.26 236.87C1019.52 236.87 1020.69 236.825 1021.77 236.735C1022.88 236.615 1023.9 236.45 1024.83 236.24ZM1038.4 268.46C1036.54 268.46 1034.87 268.295 1033.4 267.965C1031.96 267.665 1030.82 267.185 1029.98 266.525C1029.17 265.895 1028.77 265.115 1028.77 264.185C1028.77 263.255 1029.19 262.415 1030.03 261.665C1030.87 260.945 1032.11 260.375 1033.76 259.955L1034.17 260.675C1033.6 261.125 1033.18 261.605 1032.91 262.115C1032.67 262.655 1032.55 263.21 1032.55 263.78C1032.55 265.04 1033.12 266 1034.26 266.66C1035.43 267.35 1037 267.695 1038.98 267.695C1040.33 267.695 1041.53 267.515 1042.58 267.155C1043.66 266.795 1044.5 266.255 1045.1 265.535C1045.73 264.815 1046.05 263.93 1046.05 262.88C1046.05 261.98 1045.72 261.215 1045.06 260.585C1044.4 259.985 1043.08 259.685 1041.1 259.685H1038.31C1037.08 259.685 1036 259.55 1035.07 259.28C1034.17 259.01 1033.46 258.59 1032.95 258.02C1032.44 257.42 1032.19 256.67 1032.19 255.77C1032.19 254.51 1032.68 253.4 1033.67 252.44C1034.66 251.48 1036.13 250.58 1038.08 249.74L1038.53 250.1C1037.96 250.46 1037.42 250.85 1036.91 251.27C1036.43 251.66 1036.19 252.17 1036.19 252.8C1036.19 253.76 1036.79 254.24 1037.99 254.24H1042.9C1044.55 254.24 1046.02 254.435 1047.31 254.825C1048.63 255.215 1049.66 255.86 1050.41 256.76C1051.19 257.63 1051.58 258.77 1051.58 260.18C1051.58 261.65 1051.1 263.015 1050.14 264.275C1049.21 265.535 1047.77 266.54 1045.82 267.29C1043.87 268.07 1041.4 268.46 1038.4 268.46ZM1038.85 250.415C1037.14 250.415 1035.61 250.16 1034.26 249.65C1032.91 249.14 1031.84 248.36 1031.06 247.31C1030.28 246.26 1029.89 244.91 1029.89 243.26C1029.89 241.61 1030.28 240.26 1031.06 239.21C1031.84 238.13 1032.91 237.35 1034.26 236.87C1035.61 236.36 1037.14 236.105 1038.85 236.105C1040.56 236.105 1042.09 236.36 1043.44 236.87C1044.79 237.35 1045.85 238.13 1046.63 239.21C1047.41 240.26 1047.8 241.61 1047.8 243.26C1047.8 244.91 1047.41 246.26 1046.63 247.31C1045.85 248.36 1044.79 249.14 1043.44 249.65C1042.09 250.16 1040.56 250.415 1038.85 250.415ZM1038.85 249.605C1039.66 249.605 1040.29 249.155 1040.74 248.255C1041.19 247.325 1041.41 245.66 1041.41 243.26C1041.41 240.86 1041.19 239.21 1040.74 238.31C1040.29 237.38 1039.66 236.915 1038.85 236.915C1038.07 236.915 1037.44 237.38 1036.96 238.31C1036.51 239.21 1036.28 240.86 1036.28 243.26C1036.28 245.66 1036.51 247.325 1036.96 248.255C1037.44 249.155 1038.07 249.605 1038.85 249.605ZM1045.87 239.975L1044.97 239.66C1045.42 238.49 1046.14 237.515 1047.13 236.735C1048.15 235.955 1049.24 235.565 1050.41 235.565C1051.37 235.565 1052.09 235.835 1052.57 236.375C1053.08 236.885 1053.34 237.56 1053.34 238.4C1053.34 239.3 1053.1 239.975 1052.62 240.425C1052.14 240.845 1051.6 241.055 1051 241.055C1050.49 241.055 1050.01 240.875 1049.56 240.515C1049.14 240.155 1048.9 239.615 1048.84 238.895C1048.78 238.145 1049.03 237.185 1049.6 236.015L1049.92 236.285C1048.78 236.705 1047.92 237.2 1047.35 237.77C1046.78 238.31 1046.29 239.045 1045.87 239.975ZM1071.28 236.105C1072.54 236.105 1073.56 236.27 1074.34 236.6C1075.15 236.9 1075.78 237.32 1076.23 237.86C1076.71 238.43 1077.05 239.165 1077.26 240.065C1077.5 240.965 1077.62 242.18 1077.62 243.71V255.815C1077.62 257.075 1077.83 257.93 1078.25 258.38C1078.7 258.83 1079.45 259.055 1080.5 259.055V260C1079.93 259.97 1079.08 259.94 1077.94 259.91C1076.8 259.85 1075.67 259.82 1074.56 259.82C1073.42 259.82 1072.3 259.85 1071.19 259.91C1070.11 259.94 1069.28 259.97 1068.71 260V259.055C1069.61 259.055 1070.24 258.83 1070.6 258.38C1070.96 257.93 1071.14 257.075 1071.14 255.815V241.82C1071.14 241.07 1071.07 240.425 1070.92 239.885C1070.77 239.315 1070.5 238.88 1070.11 238.58C1069.72 238.25 1069.13 238.085 1068.35 238.085C1067.54 238.085 1066.79 238.31 1066.1 238.76C1065.44 239.21 1064.9 239.84 1064.48 240.65C1064.09 241.43 1063.9 242.315 1063.9 243.305V255.815C1063.9 257.075 1064.08 257.93 1064.44 258.38C1064.83 258.83 1065.46 259.055 1066.33 259.055V260C1065.79 259.97 1064.99 259.94 1063.94 259.91C1062.92 259.85 1061.86 259.82 1060.75 259.82C1059.61 259.82 1058.44 259.85 1057.24 259.91C1056.04 259.94 1055.14 259.97 1054.54 260V259.055C1055.59 259.055 1056.32 258.83 1056.74 258.38C1057.19 257.93 1057.42 257.075 1057.42 255.815V241.64C1057.42 240.29 1057.21 239.3 1056.79 238.67C1056.4 238.01 1055.65 237.68 1054.54 237.68V236.735C1055.5 236.825 1056.43 236.87 1057.33 236.87C1058.59 236.87 1059.76 236.825 1060.84 236.735C1061.95 236.615 1062.97 236.45 1063.9 236.24V240.29C1064.65 238.76 1065.67 237.68 1066.96 237.05C1068.25 236.42 1069.69 236.105 1071.28 236.105ZM1093.79 236.105C1096.43 236.105 1098.5 236.885 1100 238.445C1101.5 240.005 1102.25 242.555 1102.25 246.095H1087.45L1087.36 245.24H1096.58C1096.61 243.77 1096.52 242.42 1096.31 241.19C1096.1 239.93 1095.77 238.925 1095.32 238.175C1094.87 237.425 1094.27 237.05 1093.52 237.05C1092.47 237.05 1091.57 237.71 1090.82 239.03C1090.1 240.35 1089.67 242.54 1089.52 245.6L1089.65 245.87C1089.62 246.23 1089.59 246.605 1089.56 246.995C1089.56 247.385 1089.56 247.79 1089.56 248.21C1089.56 250.28 1089.85 251.96 1090.42 253.25C1091.02 254.54 1091.77 255.485 1092.67 256.085C1093.57 256.655 1094.48 256.94 1095.41 256.94C1096.04 256.94 1096.69 256.85 1097.35 256.67C1098.04 256.46 1098.73 256.1 1099.42 255.59C1100.11 255.05 1100.75 254.3 1101.35 253.34L1102.16 253.61C1101.8 254.75 1101.23 255.86 1100.45 256.94C1099.67 258.02 1098.68 258.905 1097.48 259.595C1096.28 260.285 1094.84 260.63 1093.16 260.63C1091.12 260.63 1089.32 260.195 1087.76 259.325C1086.2 258.455 1084.97 257.135 1084.07 255.365C1083.2 253.595 1082.77 251.345 1082.77 248.615C1082.77 245.825 1083.23 243.5 1084.16 241.64C1085.12 239.78 1086.43 238.4 1088.08 237.5C1089.76 236.57 1091.66 236.105 1093.79 236.105ZM1120.07 236.105C1121.03 236.105 1121.81 236.315 1122.41 236.735C1123.01 237.125 1123.45 237.635 1123.72 238.265C1124.02 238.895 1124.17 239.555 1124.17 240.245C1124.17 241.355 1123.84 242.27 1123.18 242.99C1122.55 243.68 1121.71 244.025 1120.66 244.025C1119.61 244.025 1118.78 243.77 1118.18 243.26C1117.61 242.72 1117.33 242.015 1117.33 241.145C1117.33 240.305 1117.51 239.615 1117.87 239.075C1118.26 238.505 1118.74 238.025 1119.31 237.635C1118.89 237.515 1118.47 237.53 1118.05 237.68C1117.48 237.77 1116.94 238.01 1116.43 238.4C1115.92 238.76 1115.48 239.225 1115.12 239.795C1114.76 240.335 1114.48 240.935 1114.27 241.595C1114.06 242.225 1113.95 242.84 1113.95 243.44V255.365C1113.95 256.805 1114.3 257.78 1114.99 258.29C1115.71 258.8 1116.77 259.055 1118.18 259.055V260C1117.49 259.97 1116.49 259.94 1115.17 259.91C1113.85 259.85 1112.47 259.82 1111.03 259.82C1109.83 259.82 1108.61 259.85 1107.38 259.91C1106.15 259.94 1105.22 259.97 1104.59 260V259.055C1105.64 259.055 1106.38 258.83 1106.8 258.38C1107.25 257.93 1107.47 257.075 1107.47 255.815V241.64C1107.47 240.29 1107.26 239.3 1106.84 238.67C1106.45 238.01 1105.7 237.68 1104.59 237.68V236.735C1105.55 236.825 1106.48 236.87 1107.38 236.87C1108.64 236.87 1109.81 236.825 1110.89 236.735C1112 236.615 1113.02 236.45 1113.95 236.24V240.425C1114.31 239.615 1114.79 238.88 1115.39 238.22C1115.99 237.56 1116.68 237.05 1117.46 236.69C1118.24 236.3 1119.11 236.105 1120.07 236.105ZM1128.84 253.7C1130.01 253.7 1130.94 254.015 1131.63 254.645C1132.32 255.245 1132.66 256.085 1132.66 257.165C1132.66 258.245 1132.32 259.1 1131.63 259.73C1130.94 260.33 1130.01 260.63 1128.84 260.63C1127.67 260.63 1126.74 260.33 1126.05 259.73C1125.36 259.1 1125.01 258.245 1125.01 257.165C1125.01 256.085 1125.36 255.245 1126.05 254.645C1126.74 254.015 1127.67 253.7 1128.84 253.7Z" fill="url(#paint1_linear_146_19)"/>
<path d="M572 80.8042C572 88.1774 574.758 93.9493 577.653 100.538C587.511 122.98 594.788 147.479 601.823 171.077C608.774 194.391 614.501 217.368 616.248 241.826C616.954 251.721 617.294 264.938 618.977 247.494C620.322 233.549 620.258 219.457 621.9 205.507C624.205 185.923 630.072 168.056 635.155 149.244C649.612 95.7472 689.469 64.2811 739.537 55.7167C787.662 47.4845 837.569 50.5733 886.119 50.5733C915.07 50.5733 943.748 51.0059 971.69 60.1254C986.164 64.8492 1003.78 73.8067 1006.58 89.0967C1009.38 104.387 1004.39 109.28 996.641 115.864C988.889 122.447 949.099 141.173 926.955 138.432C899.93 135.086 880.796 104.865 890.895 76.8154C899.13 53.9399 923.411 39.3156 943.037 30.3144C999.782 4.28784 1065.48 2.74078 1126.07 2.07782C1233.45 0.902873 1339.78 13.0591 1444.87 36.7174C1562.98 63.3104 1677.85 103.011 1793 141.266" stroke="url(#paint2_linear_146_19)" stroke-width="3" stroke-linecap="round"/>
<path d="M-3.62354 183.665C0.954391 184.428 6.48719 192.102 10.0288 194.781C20.3942 202.621 31.4838 207.456 43.9707 210.862C64.3086 216.408 84.7629 219.46 105.379 223.489C118.734 226.098 132.364 226.771 145.904 227.859C162.33 229.179 178.442 231.259 194.955 231.259C218.684 231.259 243.913 233.841 267.156 228.129C280.205 224.922 293.016 215.328 302.339 206.005C311.791 196.553 320.681 185.221 323.924 171.901C330.298 145.721 328.355 117.452 306.764 98.945C297.53 91.0297 289.096 85.5625 276.492 85.5625C264.39 85.5625 253.857 85.4647 247.19 97.434C240.345 109.725 242.693 127.516 247.082 140.01C254.642 161.524 269.76 179.581 281.726 198.666C291.143 213.686 295.879 234.057 290.899 251.387C283.921 275.673 256.309 307.792 227.98 299.79C210.044 294.724 201.787 270.418 203.374 253.761C203.887 248.374 208.58 245.712 213.195 243.886C214.989 243.176 217.995 243.567 218.807 241.943" stroke="url(#paint3_linear_146_19)" stroke-width="3" stroke-linecap="round"/>
<path d="M255.32 216.766V214.132C258.833 213.78 261.819 212.726 264.278 210.97C266.737 209.301 268.625 206.403 269.943 202.275C271.26 198.148 271.919 192.351 271.919 184.886V112.695C271.919 109.446 271.655 107.074 271.128 105.581C270.689 104 269.767 102.947 268.362 102.42C266.957 101.805 264.849 101.454 262.038 101.366V98.731C264.234 98.8188 267.088 98.9066 270.601 98.9945C274.202 99.0823 277.978 99.1262 281.931 99.1262C285.883 99.1262 289.703 99.0823 293.392 98.9945C297.168 98.9066 300.286 98.8188 302.745 98.731V101.366C300.022 101.454 297.914 101.805 296.421 102.42C295.016 102.947 294.05 104 293.523 105.581C293.084 107.074 292.865 109.446 292.865 112.695V160.91C292.865 164.511 292.865 168.419 292.865 172.635C292.865 176.763 292.689 180.802 292.338 184.755C292.074 188.707 291.503 192.22 290.625 195.293C288.869 201.353 285.048 206.447 279.164 210.575C273.368 214.702 265.42 216.766 255.32 216.766ZM373.172 122.443V177.641C373.172 181.593 373.787 184.535 375.016 186.467C376.246 188.311 378.441 189.234 381.603 189.234V192C378.881 191.737 376.158 191.605 373.435 191.605C369.747 191.605 366.322 191.737 363.16 192C359.998 192.263 357.012 192.747 354.202 193.449V181.593C352.094 185.984 349.152 189.146 345.376 191.078C341.687 192.922 337.559 193.844 332.993 193.844C329.304 193.844 326.318 193.361 324.035 192.395C321.751 191.429 319.951 190.2 318.633 188.707C317.14 187.038 316.086 184.842 315.472 182.12C314.857 179.397 314.55 175.884 314.55 171.581V138.252C314.55 134.3 313.935 131.401 312.705 129.557C311.564 127.625 309.368 126.659 306.118 126.659V123.893C308.929 124.156 311.651 124.288 314.286 124.288C317.975 124.288 321.4 124.156 324.561 123.893C327.811 123.541 330.797 123.058 333.52 122.443V176.982C333.52 179.178 333.695 181.11 334.046 182.778C334.486 184.447 335.276 185.765 336.418 186.731C337.559 187.609 339.228 188.048 341.424 188.048C343.795 188.048 345.903 187.389 347.747 186.072C349.679 184.755 351.216 182.954 352.358 180.671C353.587 178.299 354.202 175.665 354.202 172.767V138.252C354.202 134.3 353.587 131.401 352.358 129.557C351.216 127.625 349.02 126.659 345.771 126.659V123.893C348.581 124.156 351.304 124.288 353.939 124.288C357.627 124.288 361.052 124.156 364.214 123.893C367.463 123.541 370.449 123.058 373.172 122.443ZM414.332 88.8508V179.749C414.332 183.437 414.947 185.94 416.177 187.258C417.494 188.575 419.69 189.234 422.763 189.234V192C421.095 191.912 418.592 191.824 415.254 191.737C411.917 191.561 408.536 191.473 405.111 191.473C401.686 191.473 398.217 191.561 394.704 191.737C391.278 191.824 388.688 191.912 386.931 192V189.234C390.005 189.234 392.157 188.575 393.386 187.258C394.704 185.94 395.362 183.437 395.362 179.749V104.659C395.362 100.707 394.748 97.8089 393.518 95.9645C392.376 94.0324 390.181 93.0664 386.931 93.0664V90.2999C389.742 90.5634 392.464 90.6951 395.099 90.6951C398.7 90.6951 402.125 90.5634 405.374 90.2999C408.624 89.9486 411.61 89.4656 414.332 88.8508ZM445.494 89.9047C449.183 89.9047 452.081 90.8268 454.189 92.6712C456.384 94.4276 457.482 96.8867 457.482 100.048C457.482 103.21 456.384 105.713 454.189 107.557C452.081 109.314 449.183 110.192 445.494 110.192C441.805 110.192 438.863 109.314 436.668 107.557C434.56 105.713 433.506 103.21 433.506 100.048C433.506 96.8867 434.56 94.4276 436.668 92.6712C438.863 90.8268 441.805 89.9047 445.494 89.9047ZM455.769 122.443V179.749C455.769 183.437 456.384 185.94 457.614 187.258C458.931 188.575 461.127 189.234 464.2 189.234V192C462.62 191.912 460.161 191.824 456.823 191.737C453.486 191.561 450.105 191.473 446.68 191.473C443.254 191.473 439.785 191.561 436.272 191.737C432.76 191.824 430.125 191.912 428.368 192V189.234C431.442 189.234 433.594 188.575 434.823 187.258C436.141 185.94 436.799 183.437 436.799 179.749V138.252C436.799 134.3 436.185 131.401 434.955 129.557C433.813 127.625 431.618 126.659 428.368 126.659V123.893C431.179 124.156 433.901 124.288 436.536 124.288C440.225 124.288 443.65 124.156 446.811 123.893C450.061 123.541 453.047 123.058 455.769 122.443ZM488.101 192.922C484.149 192.922 480.856 192.176 478.221 190.683C475.586 189.19 473.654 187.214 472.425 184.755C471.195 182.208 470.58 179.441 470.58 176.455C470.58 172.679 471.415 169.605 473.083 167.234C474.84 164.862 477.079 162.93 479.802 161.437C482.524 159.944 485.379 158.715 488.365 157.749C491.439 156.783 494.337 155.86 497.059 154.982C499.87 154.016 502.109 152.918 503.778 151.689C505.534 150.371 506.413 148.703 506.413 146.683V136.407C506.413 134.124 506.017 132.104 505.227 130.348C504.524 128.503 503.383 127.098 501.802 126.132C500.309 125.166 498.333 124.683 495.874 124.683C494.117 124.683 492.361 124.946 490.604 125.473C488.848 125.913 487.399 126.703 486.257 127.845C488.716 128.723 490.604 130.084 491.922 131.928C493.327 133.685 494.029 135.705 494.029 137.988C494.029 140.974 492.975 143.346 490.868 145.102C488.848 146.859 486.433 147.737 483.622 147.737C480.461 147.737 478.045 146.771 476.377 144.839C474.796 142.819 474.006 140.403 474.006 137.593C474.006 135.046 474.62 132.938 475.85 131.27C477.167 129.601 478.968 128.02 481.251 126.527C483.71 125.122 486.652 124.024 490.077 123.234C493.59 122.443 497.367 122.048 501.407 122.048C505.446 122.048 509.091 122.487 512.341 123.366C515.59 124.156 518.313 125.649 520.508 127.845C522.528 129.865 523.846 132.368 524.46 135.354C525.075 138.252 525.383 141.94 525.383 146.419V182.252C525.383 184.447 525.602 185.984 526.041 186.862C526.48 187.653 527.227 188.048 528.281 188.048C529.071 188.048 529.818 187.828 530.52 187.389C531.311 186.95 532.145 186.423 533.023 185.808L534.341 188.048C532.496 189.629 530.345 190.858 527.886 191.737C525.514 192.527 522.836 192.922 519.85 192.922C516.6 192.922 514.009 192.483 512.077 191.605C510.145 190.639 508.74 189.365 507.862 187.784C507.071 186.204 506.676 184.359 506.676 182.252C504.568 185.589 502.021 188.224 499.035 190.156C496.049 192 492.405 192.922 488.101 192.922ZM497.455 184.491C499.211 184.491 500.792 184.096 502.197 183.305C503.69 182.427 505.095 181.022 506.413 179.09V152.084C505.622 153.401 504.524 154.587 503.119 155.641C501.714 156.695 500.221 157.793 498.64 158.934C497.059 159.988 495.522 161.174 494.029 162.491C492.624 163.809 491.482 165.433 490.604 167.365C489.726 169.298 489.287 171.625 489.287 174.347C489.287 177.773 490.033 180.319 491.526 181.988C493.019 183.657 494.995 184.491 497.455 184.491ZM649.347 98.731V101.366C647.415 102.068 645.351 103.605 643.155 105.976C641.048 108.348 639.072 112.036 637.227 117.042L609.431 192.263C608.728 192.176 607.982 192.132 607.192 192.132C606.401 192.132 605.611 192.132 604.82 192.132C604.118 192.132 603.371 192.132 602.581 192.132C601.79 192.132 601.044 192.176 600.341 192.263L566.749 109.797C565.519 106.635 564.158 104.483 562.665 103.342C561.172 102.112 559.767 101.454 558.449 101.366V98.731C561.084 98.8188 564.158 98.9066 567.671 98.9945C571.272 99.0823 574.872 99.1262 578.473 99.1262C582.513 99.1262 586.289 99.0823 589.802 98.9945C593.403 98.9066 596.301 98.8188 598.497 98.731V101.366C595.687 101.454 593.491 101.805 591.91 102.42C590.329 102.947 589.451 104 589.275 105.581C589.1 107.074 589.627 109.358 590.856 112.432L614.832 173.425L612.066 176.719L630.245 127.713C632.617 121.126 633.846 115.944 633.934 112.168C634.022 108.392 633.1 105.669 631.167 104C629.235 102.332 626.469 101.454 622.868 101.366V98.731C625.854 98.8188 628.664 98.9066 631.299 98.9945C633.934 99.0823 636.613 99.1262 639.335 99.1262C641.267 99.1262 643.068 99.0823 644.736 98.9945C646.493 98.9066 648.03 98.8188 649.347 98.731ZM676.556 122.048C682.967 122.048 688.587 123.234 693.418 125.605C698.248 127.976 702.025 131.797 704.747 137.066C707.47 142.336 708.831 149.318 708.831 158.012C708.831 166.707 707.47 173.689 704.747 178.958C702.025 184.14 698.248 187.916 693.418 190.287C688.587 192.659 682.967 193.844 676.556 193.844C670.32 193.844 664.743 192.659 659.825 190.287C654.995 187.916 651.175 184.14 648.364 178.958C645.642 173.689 644.28 166.707 644.28 158.012C644.28 149.318 645.642 142.336 648.364 137.066C651.175 131.797 654.995 127.976 659.825 125.605C664.743 123.234 670.32 122.048 676.556 122.048ZM676.556 124.683C673.043 124.683 670.101 127.318 667.729 132.587C665.358 137.769 664.172 146.244 664.172 158.012C664.172 169.781 665.358 178.256 667.729 183.437C670.101 188.619 673.043 191.21 676.556 191.21C680.156 191.21 683.098 188.619 685.382 183.437C687.753 178.256 688.939 169.781 688.939 158.012C688.939 146.244 687.753 137.769 685.382 132.587C683.098 127.318 680.156 124.683 676.556 124.683ZM762.372 122.048C765.183 122.048 767.466 122.663 769.223 123.893C770.979 125.034 772.252 126.527 773.043 128.372C773.921 130.216 774.36 132.148 774.36 134.168C774.36 137.417 773.394 140.096 771.462 142.204C769.618 144.224 767.159 145.234 764.085 145.234C761.011 145.234 758.596 144.487 756.839 142.994C755.171 141.413 754.336 139.35 754.336 136.803C754.336 134.344 754.863 132.324 755.917 130.743C757.059 129.074 758.464 127.669 760.133 126.527C758.903 126.176 757.674 126.22 756.444 126.659C754.775 126.922 753.195 127.625 751.702 128.767C750.209 129.821 748.935 131.182 747.881 132.851C746.827 134.431 745.993 136.188 745.378 138.12C744.764 139.964 744.456 141.765 744.456 143.521V178.431C744.456 182.647 745.466 185.501 747.486 186.994C749.594 188.487 752.712 189.234 756.839 189.234V192C754.819 191.912 751.877 191.824 748.013 191.737C744.149 191.561 740.109 191.473 735.893 191.473C732.38 191.473 728.824 191.561 725.223 191.737C721.622 191.824 718.899 191.912 717.055 192V189.234C720.129 189.234 722.281 188.575 723.51 187.258C724.828 185.94 725.486 183.437 725.486 179.749V138.252C725.486 134.3 724.871 131.401 723.642 129.557C722.5 127.625 720.305 126.659 717.055 126.659V123.893C719.865 124.156 722.588 124.288 725.223 124.288C728.911 124.288 732.336 124.156 735.498 123.893C738.748 123.541 741.734 123.058 744.456 122.443V134.695C745.51 132.324 746.915 130.172 748.672 128.24C750.428 126.308 752.448 124.815 754.732 123.761C757.015 122.619 759.562 122.048 762.372 122.048ZM810.736 122.048C817.147 122.048 822.768 123.234 827.598 125.605C832.428 127.976 836.205 131.797 838.927 137.066C841.65 142.336 843.011 149.318 843.011 158.012C843.011 166.707 841.65 173.689 838.927 178.958C836.205 184.14 832.428 187.916 827.598 190.287C822.768 192.659 817.147 193.844 810.736 193.844C804.5 193.844 798.924 192.659 794.005 190.287C789.175 187.916 785.355 184.14 782.544 178.958C779.822 173.689 778.461 166.707 778.461 158.012C778.461 149.318 779.822 142.336 782.544 137.066C785.355 131.797 789.175 127.976 794.005 125.605C798.924 123.234 804.5 122.048 810.736 122.048ZM810.736 124.683C807.223 124.683 804.281 127.318 801.91 132.587C799.538 137.769 798.353 146.244 798.353 158.012C798.353 169.781 799.538 178.256 801.91 183.437C804.281 188.619 807.223 191.21 810.736 191.21C814.337 191.21 817.279 188.619 819.562 183.437C821.933 178.256 823.119 169.781 823.119 158.012C823.119 146.244 821.933 137.769 819.562 132.587C817.279 127.318 814.337 124.683 810.736 124.683ZM900.241 122.048C903.93 122.048 906.916 122.531 909.199 123.497C911.57 124.376 913.415 125.605 914.732 127.186C916.137 128.855 917.147 131.006 917.762 133.641C918.465 136.276 918.816 139.833 918.816 144.312V179.749C918.816 183.437 919.431 185.94 920.66 187.258C921.977 188.575 924.173 189.234 927.247 189.234V192C925.578 191.912 923.075 191.824 919.738 191.737C916.401 191.561 913.107 191.473 909.858 191.473C906.52 191.473 903.227 191.561 899.978 191.737C896.816 191.824 894.401 191.912 892.732 192V189.234C895.367 189.234 897.211 188.575 898.265 187.258C899.319 185.94 899.846 183.437 899.846 179.749V138.779C899.846 136.583 899.626 134.695 899.187 133.114C898.748 131.445 897.958 130.172 896.816 129.294C895.674 128.328 893.962 127.845 891.678 127.845C889.307 127.845 887.111 128.503 885.091 129.821C883.159 131.138 881.578 132.982 880.349 135.354C879.207 137.637 878.636 140.228 878.636 143.126V179.749C878.636 183.437 879.163 185.94 880.217 187.258C881.359 188.575 883.203 189.234 885.75 189.234V192C884.169 191.912 881.842 191.824 878.768 191.737C875.782 191.561 872.664 191.473 869.415 191.473C866.078 191.473 862.652 191.561 859.139 191.737C855.627 191.824 852.992 191.912 851.235 192V189.234C854.309 189.234 856.461 188.575 857.69 187.258C859.008 185.94 859.666 183.437 859.666 179.749V138.252C859.666 134.3 859.052 131.401 857.822 129.557C856.68 127.625 854.485 126.659 851.235 126.659V123.893C854.046 124.156 856.768 124.288 859.403 124.288C863.092 124.288 866.517 124.156 869.678 123.893C872.928 123.541 875.914 123.058 878.636 122.443V134.3C880.832 129.821 883.818 126.659 887.594 124.815C891.371 122.97 895.586 122.048 900.241 122.048ZM949.281 89.9047C952.969 89.9047 955.868 90.8268 957.975 92.6712C960.171 94.4276 961.269 96.8867 961.269 100.048C961.269 103.21 960.171 105.713 957.975 107.557C955.868 109.314 952.969 110.192 949.281 110.192C945.592 110.192 942.65 109.314 940.454 107.557C938.347 105.713 937.293 103.21 937.293 100.048C937.293 96.8867 938.347 94.4276 940.454 92.6712C942.65 90.8268 945.592 89.9047 949.281 89.9047ZM959.556 122.443V179.749C959.556 183.437 960.171 185.94 961.4 187.258C962.718 188.575 964.913 189.234 967.987 189.234V192C966.406 191.912 963.947 191.824 960.61 191.737C957.273 191.561 953.891 191.473 950.466 191.473C947.041 191.473 943.572 191.561 940.059 191.737C936.546 191.824 933.912 191.912 932.155 192V189.234C935.229 189.234 937.381 188.575 938.61 187.258C939.927 185.94 940.586 183.437 940.586 179.749V138.252C940.586 134.3 939.971 131.401 938.742 129.557C937.6 127.625 935.405 126.659 932.155 126.659V123.893C934.965 124.156 937.688 124.288 940.323 124.288C944.011 124.288 947.436 124.156 950.598 123.893C953.848 123.541 956.834 123.058 959.556 122.443ZM1022.71 122.048C1026.4 122.048 1029.39 122.531 1031.67 123.497C1034.04 124.376 1035.89 125.605 1037.21 127.186C1038.61 128.855 1039.62 131.006 1040.24 133.641C1040.94 136.276 1041.29 139.833 1041.29 144.312V179.749C1041.29 183.437 1041.9 185.94 1043.13 187.258C1044.45 188.575 1046.65 189.234 1049.72 189.234V192C1048.05 191.912 1045.55 191.824 1042.21 191.737C1038.87 191.561 1035.58 191.473 1032.33 191.473C1028.99 191.473 1025.7 191.561 1022.45 191.737C1019.29 191.824 1016.87 191.912 1015.21 192V189.234C1017.84 189.234 1019.68 188.575 1020.74 187.258C1021.79 185.94 1022.32 183.437 1022.32 179.749V138.779C1022.32 136.583 1022.1 134.695 1021.66 133.114C1021.22 131.445 1020.43 130.172 1019.29 129.294C1018.15 128.328 1016.43 127.845 1014.15 127.845C1011.78 127.845 1009.58 128.503 1007.56 129.821C1005.63 131.138 1004.05 132.982 1002.82 135.354C1001.68 137.637 1001.11 140.228 1001.11 143.126V179.749C1001.11 183.437 1001.64 185.94 1002.69 187.258C1003.83 188.575 1005.68 189.234 1008.22 189.234V192C1006.64 191.912 1004.32 191.824 1001.24 191.737C998.255 191.561 995.138 191.473 991.888 191.473C988.551 191.473 985.126 191.561 981.613 191.737C978.1 191.824 975.465 191.912 973.708 192V189.234C976.782 189.234 978.934 188.575 980.164 187.258C981.481 185.94 982.14 183.437 982.14 179.749V138.252C982.14 134.3 981.525 131.401 980.295 129.557C979.154 127.625 976.958 126.659 973.708 126.659V123.893C976.519 124.156 979.241 124.288 981.876 124.288C985.565 124.288 988.99 124.156 992.151 123.893C995.401 123.541 998.387 123.058 1001.11 122.443V134.3C1003.31 129.821 1006.29 126.659 1010.07 124.815C1013.84 122.97 1018.06 122.048 1022.71 122.048ZM1072.81 192.922C1068.86 192.922 1065.56 192.176 1062.93 190.683C1060.29 189.19 1058.36 187.214 1057.13 184.755C1055.9 182.208 1055.29 179.441 1055.29 176.455C1055.29 172.679 1056.12 169.605 1057.79 167.234C1059.55 164.862 1061.79 162.93 1064.51 161.437C1067.23 159.944 1070.09 158.715 1073.07 157.749C1076.15 156.783 1079.04 155.86 1081.77 154.982C1084.58 154.016 1086.82 152.918 1088.48 151.689C1090.24 150.371 1091.12 148.703 1091.12 146.683V136.407C1091.12 134.124 1090.72 132.104 1089.93 130.348C1089.23 128.503 1088.09 127.098 1086.51 126.132C1085.02 125.166 1083.04 124.683 1080.58 124.683C1078.82 124.683 1077.07 124.946 1075.31 125.473C1073.55 125.913 1072.11 126.703 1070.96 127.845C1073.42 128.723 1075.31 130.084 1076.63 131.928C1078.03 133.685 1078.74 135.705 1078.74 137.988C1078.74 140.974 1077.68 143.346 1075.57 145.102C1073.55 146.859 1071.14 147.737 1068.33 147.737C1065.17 147.737 1062.75 146.771 1061.08 144.839C1059.5 142.819 1058.71 140.403 1058.71 137.593C1058.71 135.046 1059.33 132.938 1060.56 131.27C1061.87 129.601 1063.67 128.02 1065.96 126.527C1068.42 125.122 1071.36 124.024 1074.78 123.234C1078.3 122.443 1082.07 122.048 1086.11 122.048C1090.15 122.048 1093.8 122.487 1097.05 123.366C1100.3 124.156 1103.02 125.649 1105.21 127.845C1107.23 129.865 1108.55 132.368 1109.17 135.354C1109.78 138.252 1110.09 141.94 1110.09 146.419V182.252C1110.09 184.447 1110.31 185.984 1110.75 186.862C1111.19 187.653 1111.93 188.048 1112.99 188.048C1113.78 188.048 1114.52 187.828 1115.23 187.389C1116.02 186.95 1116.85 186.423 1117.73 185.808L1119.05 188.048C1117.2 189.629 1115.05 190.858 1112.59 191.737C1110.22 192.527 1107.54 192.922 1104.56 192.922C1101.31 192.922 1098.72 192.483 1096.78 191.605C1094.85 190.639 1093.45 189.365 1092.57 187.784C1091.78 186.204 1091.38 184.359 1091.38 182.252C1089.27 185.589 1086.73 188.224 1083.74 190.156C1080.76 192 1077.11 192.922 1072.81 192.922ZM1082.16 184.491C1083.92 184.491 1085.5 184.096 1086.9 183.305C1088.4 182.427 1089.8 181.022 1091.12 179.09V152.084C1090.33 153.401 1089.23 154.587 1087.83 155.641C1086.42 156.695 1084.93 157.793 1083.35 158.934C1081.77 159.988 1080.23 161.174 1078.74 162.491C1077.33 163.809 1076.19 165.433 1075.31 167.365C1074.43 169.298 1073.99 171.625 1073.99 174.347C1073.99 177.773 1074.74 180.319 1076.23 181.988C1077.73 183.657 1079.7 184.491 1082.16 184.491Z" fill="#17395C"/>
<defs>
<linearGradient id="paint0_linear_146_19" x1="258" y1="38" x2="625" y2="38" gradientUnits="userSpaceOnUse">
<stop stop-color="#C24229"/>
<stop offset="1" stop-color="#810F2C"/>
</linearGradient>
<linearGradient id="paint1_linear_146_19" x1="644" y1="241" x2="1135" y2="241" gradientUnits="userSpaceOnUse">
<stop stop-color="#4C0716"/>
<stop offset="1" stop-color="#C24229"/>
</linearGradient>
<linearGradient id="paint2_linear_146_19" x1="572" y1="129" x2="1793" y2="129" gradientUnits="userSpaceOnUse">
<stop stop-color="#BD4427"/>
<stop offset="1" stop-color="#EFB758"/>
</linearGradient>
<linearGradient id="paint3_linear_146_19" x1="161.747" y1="85.5624" x2="161.747" y2="301.04" gradientUnits="userSpaceOnUse">
<stop stop-color="#EFB758"/>
<stop offset="1" stop-color="#C24229"/>
</linearGradient>
</defs>
</svg>
